# xmcd
#
# Track frame offsets:
#	150
#	11466
#	29426
#	39402
#	54288
#	70753
#	87711
#	96649
#	116344
#	127472
#	143389
#	155481
#	167347
#	182417
#	195633
#	213097
#	223012
#	237811
#	247082
#	263302
#
# Disc length: 3798 seconds
# Revision: 0
# Processed by: cddbd v1.5.2PL0 Copyright (c) Steve Scherf et al.
# Submitted via: dBpowerAMP V12.0
#
DISCID=0f0ed414
DTITLE=Doyle Lawson and Quicksilver - Burden Bearer
DYEAR=2016
DGENRE=Couintry
TTITLE0=Burden Bearer
TTITLE1=Best Friends
TTITLE2=Brother Have You Heard
TTITLE3=He'll Care For You
TTITLE4=No Storms That We Must Fear
TTITLE5=You Were Right
TTITLE6=Rejoicing All The Way
TTITLE7=The Touch Of His Gentle Hand
TTITLE8=Another Day
TTITLE9=He's Everywhere
TTITLE10=Get Right With God
TTITLE11=Passed All Sorrow
TTITLE12=God Gave Noah The Rainbow Sign
TTITLE13=By The Marks In His Hand
TTITLE14=The Cross In The Garden
TTITLE15=Sailing On The Waves Of Glory
TTITLE16=Wonderful Day
TTITLE17=Wrastlin' Jacob
TTITLE18=Songs I Heard My Mother Sing
TTITLE19=How Great Thou Art
EXTD=
EXTT0=
EXTT1=
EXTT2=
EXTT3=
EXTT4=
EXTT5=
EXTT6=
EXTT7=
EXTT8=
EXTT9=
EXTT10=
EXTT11=
EXTT12=
EXTT13=
EXTT14=
EXTT15=
EXTT16=
EXTT17=
EXTT18=
EXTT19=
PLAYORDER=
